<svg xmlns="http://www.w3.org/2000/svg" viewBox="0 0 242.36 242.36"><defs><style>.cls-1{fill:#333;}.cls-2{fill:#eee;}</style></defs><title>Icon-1</title><g id="Layer_2" data-name="Layer 2"><g id="Layer_1-2" data-name="Layer 1"><rect class="cls-1" width="242.36" height="242.36"/><path class="cls-2" d="M171.71,110.89c-14.31-5.43-20.57-8.56-20.57-15.63,0-5.76,5.27-10.7,16.13-10.7a52.71,52.71,0,0,1,23.2,5.27l5.59-20.24c-6.58-3-15.8-5.59-28.3-5.59-26.16,0-42,14.48-42,33.4,0,16.13,12,26.33,30.44,32.74,13.33,4.77,18.59,8.72,18.59,15.63,0,7.24-6.22,12.56-17.61,12.56H136.16c-8.11,0-16.16-.39-19.61-12.89-2.8-10.2-7.08-17.61-14.81-20.73v-.49c9.54-3.46,19.58-13.16,19.58-27.31,0-10.2-3.62-17.93-10.2-23.2C103.22,67.46,91.71,65,75.25,65a220.36,220.36,0,0,0-33.4,2.3V176.71H66.7v-43.6h7.57c10.2.16,15,3.95,17.93,17.77,3.29,13.66.69,27.3,44,27.3,0,0,3.61.18,19.59.18,31.31,0,44.75-15.8,44.75-34.39C200.5,128.34,191.29,118.13,171.71,110.89ZM76.57,115H66.7V84.4A62.63,62.63,0,0,1,78,83.58c11.52.16,18.43,5.27,18.43,15.47C96.48,108.75,89.07,115,76.57,115Z"/></g></g></svg>