<svg xmlns="http://www.w3.org/2000/svg" viewBox="0 0 859.13 473.08"><defs><style>.cls-1{fill:#00aeef;}.cls-2{fill:#fff200;}.cls-3{fill:#ec008c;}.cls-4{fill:#fff;}</style></defs><title>PixelSprite-LogoTallColor</title><g id="Layer_2" data-name="Layer 2"><g id="Layer_1-2" data-name="Layer 1"><path class="cls-1" d="M263.34,466c-8.12,9.38-35.11,9.51-43.08,0-5.39,8.09-13.75,6.39-21.51,6.37s-16.33,1.81-21.89-7.13c-4.53,7.22-11.45,7.5-18.55,7.18-5.46-.25-10.95-.35-16.37-.94-4.19-.46-6.48-3.48-8.19-7.19-.7-1.53-2.4-2.6-3.64-3.87-2.44-2.5-4.85-5-7.33-7.48-.92-.91-2-2.36-3-2.38-9.13-.19-18.27-.11-28.06-.11,0,2.92.08,5.53,0,8.13-.3,7.87-3.39,12.58-10.75,13.23-8.53.75-17.21.1-25.81-.34-1.93-.1-18.28-11-19.48-19.33a49.93,49.93,0,0,1-.82-6.89q-.09-38.74,0-77.49c0-11.76,4.5-16.23,16.33-16.23q28.5,0,57,0c5.78,0,10.91,1.27,14.28,6.91,9.16-11.09,21.56-6.09,32.68-6.58,3.74-.17,7.62,2.93,12,4.78,4.5-6.75,12.86-5.08,20.62-5s16-1.82,21.32,6.23c9-9.36,34.62-9.18,43.86.57,4-6.4,10.24-7,16.93-6.91,10.83.15,21.66.11,32.49,0,6.1-.05,11.58,1.08,15.33,7.25,4.3-6.93,10.79-7.55,17.62-7.22,5.79.28,7.09.37,20.74.37s13.09,14.37,14.35,15.28c1.69-12.64,5.16-15.65,17.84-15.66q32.75,0,65.49,0c5.94,0,11.24,1.18,14.87,7.21,4.57-7.19,11.47-7.29,18.58-7.24,18.16.12,36.33,0,54.49,0,5.39,0,10.23,1.31,13.5,6.58,3.54-5.48,8.79-6.63,14.66-6.62q28.25.09,56.49,0c6.1,0,11.58,1.08,15.31,7.23,4.2-6.66,10.44-7.39,17.14-7.24,7.16.16,14.33.11,21.5,0,6.1-.08,11.59,1,15.38,7.3,4.23-7,10.75-7.36,17.56-7.32,17.33.11,34.66,0,52,0h67.1c25.36,0,26.42,16.57,26.75,21.61.35,5.4-.26,10.87-.49,16.3a2.11,2.11,0,0,1-.57,1.35c-5.75,5.21-11.23,10.83-17.49,15.34-2.14,1.54-2.86,2.53-2.86,4.78q0,22.62,0,45.24c0,11.79-4.48,16.26-16.29,16.27q-28.5,0-57,0c-5.77,0-10.92-1.24-14.53-7.29-4.95,8.22-12.83,7.29-20.41,7.28h-20c-5.62,0-10.34-1.88-13.46-6.81-9.83,9.84-33.72,9.84-43.47,0-3.83,6.22-9.91,7.13-16.46,6.82-10.6-.5-21.2-1.45-31.8-1.4-14.43.07-28.86,1-43.3,1.37-7.53.21-14.53-.79-16.51-10-5.45-2.48-9.84-5.85-12.34-11.7-.41-1-5-.13-8.38-.13,0,2.62.07,5.21,0,7.8-.29,8.86-4.81,13.74-13.52,14-9.66.25-19.37.58-29-.18-4.37-.34-8.54-3.21-13.48-5.2-3.16,5.16-9.66,5.62-16.49,5.48-7.33-.15-14.66,0-22-.05-6.72-.07-12.54-1.56-14.74-9.18-.26-.9-2.53-1.51-4-1.74-5.11-.85-10.26-1.49-15.69-2.24,0-.12-.14,1-.4,2-1.86,7.72-5.66,11-13.66,11.1-13.33.15-26.66.12-40,0-5,0-9.5-1.64-12.45-6.57-3.44,5.36-8.51,6.65-14.23,6.63-12.33,0-24.66,0-37,0C271.46,472.48,266.51,471.14,263.34,466Zm-64.65-70.41V363.82H177.07v31.64h21.75v11.27H187.54v10.86H177v31.6h22V428.35h10.85V417.44h9.93v31.77h21.62V417.57H219.67V406.3h11.27V395.44h10.51V363.83h-22v21.83H209.6v9.93Zm366.77,10.79v32.25H545V449.2h43V428.84h10.88v20.3h32.08V438.39h10.41V428.32H620.07V417.27h21.39v-42.9h-11V363.72H565.94v11H576.4v31.69Zm-20.62-42.55H480.06v10.9H490.3v31.88H479.58V438.7H468.94v10.54h33V428.42h31.9V417.34h11.08v-10.9h10.5V374.35H544.84ZM46.89,449.17h22V428.48h42.56V363.81H46.89Zm421.68-74.79H457.7V363.82H383.07V374.7H403.8V385.8h11.07V406.7h10.92v10.91h10.48v11.06H393v10.1h21.86v10.45H447V438.36h10.47v-32.1H446.58v-10.9H437v-9.88h31.58Zm281.29,74.8H814.3v-20.9H793.07V417.4H814.4V395.31H804v-9.88h22V374.35h10.43v-10.5H782.51v31.71H771.43v43.08H749.85Zm-443.31-20.9h-21.4v-10.9h21.31v-22.1H285v-9.9h21.32V363.75H264v85.43h42.53Zm464.94-64.47H706.4v10.87H696v11.1h21.35v20.89H706.5v31.9H696v10.56h32.9V428.36h9.9V385.48H760.9V374.4h10.58Zm-421.8,64.67V363.82H329v85.37h42.34v-20.7ZM653,406.37v42.77H674.9V428.4h9.45v-64.5H652.92v10.78H663.4v31.69ZM155.5,449.29V363.82h-21.4v85.48Zm246-51.82c-1.84,0-4.31.12-6.76,0-4.78-.28-10.22-1.07-11.68-6-1.69-5.67-6.47-6.54-10.41-10.07,0,11.47-.06,22.1.09,32.72a5,5,0,0,0,2,3.26c2.47,1.79,5.17,3.25,7.95,4.95,5.74-8.95,15.94-4.53,23.17-5.9Z"/><path class="cls-1" d="M294.78,296.64c0-1,0-2,0-3q0-124,0-247.94c0-12.84,4.22-17.09,17-17.09H559.19c40.08,0,51.45,42.45,51.46,53,0,87.31,0,159,0,246.33,0,10.84-4.69,15.58-15.46,15.58-87.65,0-164.77,0-252.42,0C332,343.47,295.77,327.06,294.78,296.64ZM307.05,40.74V298.16H565.47V40.74Z"/><path class="cls-1" d="M565.46,406.38H576.4V374.69H565.94v-11h64.54v10.64h11v42.9H620.07v11.06h21.26v10.07H630.92v10.75H598.85v-20.3H588V449.2H545V438.63h20.49Zm44.22-11h9.59v-9.56H599.05v20.27h10.62Z"/><path class="cls-1" d="M544.84,363.83v10.52h10.54v32.09h-10.5v10.9H533.8v11.08H501.9v20.82h-33V438.7h10.65V406.62H490.3V374.74H480.06v-10.9Zm-11.38,22.11H512v20.21h10.92V395.32h10.53Z"/><path class="cls-1" d="M46.89,449.17V363.81h64.59v64.67H68.91v20.69Zm22.22-63.39v20.46H90.4V385.78Z"/><path class="cls-1" d="M468.57,374.38v11.1H437v9.88h9.59v10.9h10.85v32.1H447v10.86H414.88V438.77H393v-10.1h43.25V417.61H425.79V406.7H414.87V385.8H403.8V374.7H383.07V363.82H457.7v10.56Z"/><path class="cls-1" d="M749.85,449.19V438.64h21.57V395.56h11.09V363.85h53.86v10.5H825.94v11.08H804v9.88H814.4V417.4H793.07v10.89H814.3v20.9Z"/><path class="cls-1" d="M306.54,428.28v20.9H264V363.75h42.35v21.64H285v9.9h21.4v22.1H285.14v10.9Z"/><path class="cls-1" d="M771.48,363.81V374.4H760.9v11.08H738.82v42.89h-9.9v20.77H696V438.57H706.5v-31.9h10.84V385.78H696v-11.1H706.4V363.81Z"/><path class="cls-1" d="M219.8,417.44h-9.93v10.92H199v20.83H177v-31.6h10.49V406.72h11.28V395.45l-.13.13H209.6v-9.93h9.85V363.83h22v31.61H230.94V406.3H219.67v11.27Z"/><path class="cls-1" d="M349.68,428.49h21.69v20.7H329V363.82h20.65Z"/><path class="cls-1" d="M653,406.37H663.4V374.68H652.92V363.89h31.42v64.5H674.9v20.75H653Z"/><path class="cls-1" d="M155.5,449.29h-21.4V363.82h21.4Z"/><path class="cls-1" d="M198.82,395.45H177.07V363.82h21.62q0,15.92,0,31.77Z"/><path class="cls-1" d="M219.67,417.57h21.75v31.64H219.8q0-15.92,0-31.77Z"/><path class="cls-1" d="M307.05,40.74H565.47V298.16H307.05ZM329,277.23H544.36V62.94H329Z"/><path class="cls-1" d="M609.68,395.38v10.71H599.05V385.82h20.22v9.56Z"/><path class="cls-1" d="M533.46,385.94v9.38H522.93v10.83H512V385.94Z"/><path class="cls-1" d="M69.11,385.78H90.4v20.46H69.11Z"/><path class="cls-1" d="M329,277.23V62.94H544.36V277.23Zm85.94-21.89V212.43h86.43V83.78H437v43h20.42v42.4H414.62V148.82H372V255.35ZM372,83.75v42.52h42.43V83.75Z"/><path class="cls-1" d="M414.92,255.35H372V148.82h42.58v20.34h42.79v-42.4H437v-43h64.36V212.43H414.92Z"/><path class="cls-1" d="M372,83.75h42.43v42.52H372Z"/><path class="cls-2" d="M244.74,452c-8.12,9.38-35.11,9.51-43.08,0-5.39,8.09-13.75,6.39-21.51,6.37s-16.33,1.81-21.89-7.13c-4.53,7.22-11.45,7.5-18.55,7.18-5.46-.25-10.95-.35-16.37-.94-4.19-.46-6.48-3.48-8.19-7.19-.7-1.53-2.4-2.6-3.64-3.87-2.44-2.5-4.85-5-7.33-7.48-.92-.91-2-2.36-3-2.38-9.13-.19-18.27-.11-28.06-.11,0,2.92.08,5.53,0,8.13-.3,7.87-3.39,12.58-10.75,13.23-8.53.75-17.21.1-25.81-.34-1.93-.1-18.28-11-19.48-19.33a49.93,49.93,0,0,1-.82-6.89q-.09-38.74,0-77.49c0-11.76,4.5-16.23,16.33-16.23q28.5,0,57,0c5.78,0,10.91,1.27,14.28,6.91,9.16-11.09,21.56-6.09,32.68-6.58,3.74-.17,7.62,2.93,12,4.78,4.5-6.75,12.86-5.08,20.62-5s16-1.82,21.32,6.23c9-9.36,34.62-9.18,43.86.57,4-6.4,10.24-7,16.93-6.91,10.83.15,21.66.11,32.49,0,6.1-.05,11.58,1.08,15.33,7.25,4.3-6.93,10.79-7.55,17.62-7.22,5.79.28,7.09.37,20.74.37s13.09,14.37,14.35,15.28c1.69-12.64,5.16-15.65,17.84-15.66q32.75,0,65.49,0c5.94,0,11.24,1.18,14.87,7.21,4.57-7.19,11.47-7.29,18.58-7.24,18.16.12,36.33,0,54.49,0,5.39,0,10.23,1.31,13.5,6.58,3.54-5.48,8.79-6.63,14.66-6.62q28.25.09,56.49,0c6.1,0,11.58,1.08,15.31,7.23,4.2-6.66,10.44-7.39,17.14-7.24,7.16.16,14.33.11,21.5,0,6.1-.08,11.59,1,15.38,7.3,4.23-7,10.75-7.36,17.56-7.32,17.33.11,34.66,0,52,0h67.1c25.36,0,26.42,16.57,26.75,21.61.35,5.4-.26,10.87-.49,16.3a2.11,2.11,0,0,1-.57,1.35c-5.75,5.21-11.23,10.83-17.49,15.34-2.14,1.54-2.86,2.53-2.86,4.78q0,22.62,0,45.24c0,11.79-4.48,16.26-16.29,16.27q-28.5,0-57,0c-5.77,0-10.92-1.24-14.53-7.29-4.95,8.22-12.83,7.29-20.41,7.28h-20c-5.62,0-10.34-1.88-13.46-6.81-9.83,9.84-33.72,9.84-43.47,0-3.83,6.22-9.91,7.13-16.46,6.82-10.6-.5-21.2-1.45-31.8-1.4-14.43.07-28.86,1-43.3,1.37-7.53.21-14.53-.79-16.51-10-5.45-2.48-9.84-5.85-12.34-11.7-.41-1-5-.13-8.38-.13,0,2.62.07,5.21,0,7.8-.29,8.86-4.81,13.74-13.52,14-9.66.25-19.37.58-29-.18-4.37-.34-8.54-3.21-13.48-5.2-3.16,5.16-9.66,5.62-16.49,5.48-7.33-.15-14.66,0-22-.05-6.72-.07-12.54-1.56-14.74-9.18-.26-.9-2.53-1.51-4-1.74-5.11-.85-10.26-1.49-15.69-2.24,0-.12-.14,1-.4,2-1.86,7.72-5.66,11-13.66,11.1-13.33.15-26.66.12-40,0-5,0-9.5-1.64-12.45-6.57-3.44,5.36-8.51,6.65-14.23,6.63-12.33,0-24.66,0-37,0C252.86,458.48,247.91,457.14,244.74,452Zm-64.65-70.41V349.82H158.47v31.64h21.75v11.27H168.94v10.86H158.44v31.6h22V414.35h10.85V403.44h9.93v31.77h21.62V403.57H201.07V392.3h11.27V381.44h10.51V349.83h-22v21.83H191v9.93Zm366.77,10.79v32.25H526.37V435.2h43V414.84h10.88v20.3h32.08V424.39h10.41V414.32H601.47V403.27h21.39v-42.9h-11V349.72H547.34v11H557.8v31.69Zm-20.62-42.55H461.46v10.9H471.7v31.88H461V424.7H450.34v10.54h33V414.42h31.9V403.34h11.08v-10.9h10.5V360.35H526.24ZM28.29,435.17h22V414.48H92.88V349.81H28.29ZM450,360.38H439.1V349.82H364.47V360.7H385.2V371.8h11.07V392.7h10.92v10.91h10.48v11.06H374.42v10.1h21.86v10.45h32.09V424.36h10.47v-32.1H428v-10.9h-9.59v-9.88H450Zm281.29,74.8H795.7v-20.9H774.47V403.4H795.8V381.31H785.37v-9.88h22V360.35h10.43v-10.5H763.91v31.71H752.83v43.08H731.25Zm-443.31-20.9h-21.4v-10.9h21.31v-22.1h-21.4v-9.9h21.32V349.75H245.41v85.43h42.53Zm464.94-64.47H687.8v10.87H677.39v11.1h21.35v20.89H687.9v31.9H677.42v10.56h32.9V414.36h9.9V371.48H742.3V360.4h10.58Zm-421.8,64.67V349.82H310.43v85.37h42.34v-20.7Zm303.33-22.11v42.77H656.3V414.4h9.45v-64.5H634.32v10.78H644.8v31.69ZM136.9,435.29V349.82h-21.4v85.48Zm246-51.82c-1.84,0-4.31.12-6.76,0-4.78-.28-10.22-1.07-11.68-6-1.69-5.67-6.47-6.54-10.41-10.07,0,11.47-.06,22.1.09,32.72a5,5,0,0,0,2,3.26c2.47,1.79,5.17,3.25,7.95,4.95,5.74-8.95,15.94-4.53,23.17-5.9Z"/><path class="cls-2" d="M276.18,282.64c0-1,0-2,0-3q0-124,0-247.94c0-12.84,4.22-17.09,17-17.09H540.59C580.67,14.6,592,57,592,67.56c0,87.31,0,159,0,246.33,0,10.84-4.69,15.58-15.46,15.58-87.65,0-164.77,0-252.42,0C313.4,329.47,277.17,313.06,276.18,282.64ZM288.45,26.74V284.16H546.87V26.74Z"/><path class="cls-2" d="M546.86,392.38H557.8V360.69H547.34v-11h64.54v10.64h11v42.9H601.47v11.06h21.26v10.07H612.32v10.75H580.25v-20.3H569.37V435.2h-43V424.63h20.49Zm44.22-11h9.59v-9.56H580.45v20.27h10.62Z"/><path class="cls-2" d="M526.24,349.83v10.52h10.54v32.09h-10.5v10.9H515.2v11.08H483.3v20.82h-33V424.7H461V392.62H471.7V360.74H461.46v-10.9Zm-11.38,22.11H493.41v20.21h10.92V381.32h10.53Z"/><path class="cls-2" d="M28.29,435.17V349.81H92.88v64.67H50.31v20.69Zm22.22-63.39v20.46H71.8V371.78Z"/><path class="cls-2" d="M450,360.38v11.1H418.38v9.88H428v10.9h10.85v32.1H428.37v10.86H396.28V424.77H374.42v-10.1h43.25V403.61H407.19V392.7H396.27V371.8H385.2V360.7H364.47V349.82H439.1v10.56Z"/><path class="cls-2" d="M731.25,435.19V424.64h21.57V381.56h11.09V349.85h53.86v10.5H807.34v11.08h-22v9.88H795.8V403.4H774.47v10.89H795.7v20.9Z"/><path class="cls-2" d="M287.94,414.28v20.9H245.41V349.75h42.35v21.64H266.45v9.9h21.4v22.1H266.54v10.9Z"/><path class="cls-2" d="M752.88,349.81V360.4H742.3v11.08H720.22v42.89h-9.9v20.77h-32.9V424.57H687.9v-31.9h10.84V371.78H677.39v-11.1H687.8V349.81Z"/><path class="cls-2" d="M201.2,403.44h-9.93v10.92H180.43v20.83h-22v-31.6h10.49V392.72h11.28V381.45l-.13.13H191v-9.93h9.85V349.83h22v31.61H212.34V392.3H201.07v11.27Z"/><path class="cls-2" d="M331.08,414.49h21.69v20.7H310.43V349.82h20.65Z"/><path class="cls-2" d="M634.41,392.37H644.8V360.68H634.32V349.89h31.42v64.5H656.3v20.75H634.41Z"/><path class="cls-2" d="M136.9,435.29h-21.4V349.82h21.4Z"/><path class="cls-2" d="M180.22,381.45H158.47V349.82h21.62q0,15.92,0,31.77Z"/><path class="cls-2" d="M201.07,403.57h21.75v31.64H201.2q0-15.92,0-31.77Z"/><path class="cls-2" d="M288.45,26.74H546.87V284.16H288.45Zm21.93,236.49H525.76V48.94H310.38Z"/><path class="cls-2" d="M591.08,381.38v10.71H580.45V371.82h20.22v9.56Z"/><path class="cls-2" d="M514.86,371.94v9.38H504.33v10.83H493.41V371.94Z"/><path class="cls-2" d="M50.51,371.78H71.8v20.46H50.51Z"/><path class="cls-2" d="M310.38,263.23V48.94H525.76V263.23Zm85.94-21.89V198.43h86.43V69.78H418.39v43h20.42v42.4H396V134.82H353.44V241.35Zm-43-171.6v42.52h42.43V69.75Z"/><path class="cls-2" d="M396.32,241.35H353.44V134.82H396v20.34h42.79v-42.4H418.39v-43h64.36V198.43H396.32Z"/><path class="cls-2" d="M353.36,69.75h42.43v42.52H353.36Z"/><path class="cls-3" d="M228.54,437.39c-8.12,9.38-35.11,9.51-43.08,0-5.39,8.09-13.75,6.39-21.51,6.37s-16.33,1.81-21.89-7.13c-4.53,7.22-11.45,7.5-18.55,7.18-5.46-.25-10.95-.35-16.37-.94-4.19-.46-6.48-3.48-8.19-7.19-.7-1.53-2.4-2.6-3.64-3.87-2.44-2.5-4.85-5-7.33-7.48-.92-.91-2-2.36-3-2.38-9.13-.19-18.27-.11-28.06-.11,0,2.92.08,5.53,0,8.13-.3,7.87-3.39,12.58-10.75,13.23-8.53.75-17.21.1-25.81-.34-1.93-.1-18.28-11-19.48-19.33A49.93,49.93,0,0,1,0,416.68Q0,377.94,0,339.19C0,327.43,4.51,323,16.34,323q28.5,0,57,0c5.78,0,10.91,1.27,14.28,6.91,9.16-11.09,21.56-6.09,32.68-6.58,3.74-.17,7.62,2.93,12,4.78,4.5-6.75,12.86-5.08,20.62-5s16-1.82,21.32,6.23c9-9.36,34.62-9.18,43.86.57,4-6.4,10.24-7,16.93-6.91,10.83.15,21.66.11,32.49,0,6.1-.05,11.58,1.08,15.33,7.25,4.3-6.93,10.79-7.55,17.62-7.22,5.79.28,7.09.37,20.74.37s13.09,14.37,14.35,15.28C337.26,326,340.73,323,353.41,323q32.75,0,65.49,0c5.94,0,11.24,1.18,14.87,7.21,4.57-7.19,11.47-7.29,18.58-7.24,18.16.12,36.33,0,54.49,0,5.39,0,10.23,1.31,13.5,6.58,3.54-5.48,8.79-6.63,14.66-6.62q28.25.09,56.49,0c6.1,0,11.58,1.08,15.31,7.23,4.2-6.66,10.44-7.39,17.14-7.24,7.16.16,14.33.11,21.5,0,6.1-.08,11.59,1,15.38,7.3,4.23-7,10.75-7.36,17.56-7.32,17.33.11,34.66,0,52,0h67.1c25.36,0,26.42,16.57,26.75,21.61.35,5.4-.26,10.87-.49,16.3a2.11,2.11,0,0,1-.57,1.35c-5.75,5.21-11.23,10.83-17.49,15.34-2.14,1.54-2.86,2.53-2.86,4.78q0,22.62,0,45.24c0,11.79-4.48,16.26-16.29,16.27q-28.5,0-57,0c-5.77,0-10.92-1.24-14.53-7.29-4.95,8.22-12.83,7.29-20.41,7.28h-20c-5.62,0-10.34-1.88-13.46-6.81-9.83,9.84-33.72,9.84-43.47,0-3.83,6.22-9.91,7.13-16.46,6.82-10.6-.5-21.2-1.45-31.8-1.4-14.43.07-28.86,1-43.3,1.37-7.53.21-14.53-.79-16.51-10-5.45-2.48-9.84-5.85-12.34-11.7-.41-1-5-.13-8.38-.13,0,2.62.07,5.21,0,7.8-.29,8.86-4.81,13.74-13.52,14-9.66.25-19.37.58-29-.18-4.37-.34-8.54-3.21-13.48-5.2-3.16,5.16-9.66,5.62-16.49,5.48-7.33-.15-14.66,0-22-.05-6.72-.07-12.54-1.56-14.74-9.18-.26-.9-2.53-1.51-4-1.74-5.11-.85-10.26-1.49-15.69-2.24,0-.12-.14,1-.4,2-1.86,7.72-5.66,11-13.66,11.1-13.33.15-26.66.12-40,0-5,0-9.5-1.64-12.45-6.57-3.44,5.36-8.51,6.65-14.23,6.63-12.33,0-24.66,0-37,0C236.66,443.88,231.71,442.54,228.54,437.39ZM163.89,367V335.22H142.27v31.64H164v11.27H152.74V389H142.24v31.6h22V399.75h10.85V388.84H185v31.77h21.62V389H184.87V377.7h11.27V366.84h10.51V335.23h-22v21.83H174.8V367Zm366.77,10.79V410H510.17V420.6h43V400.24H564v20.3h32.08V409.79h10.41V399.72H585.27V388.67h21.39v-42.9h-11V335.12H531.14v11H541.6v31.69ZM510,335.23H445.26v10.9H455.5V378H444.78V410.1H434.14v10.54h33V399.82H499V388.74h11.08v-10.9h10.5V345.75H510ZM12.09,420.57h22V399.88H76.68V335.21H12.09Zm421.68-74.79H422.9V335.22H348.27V346.1H369V357.2h11.07V378.1H391V389h10.48v11.06H358.22v10.1h21.86v10.45h32.09V409.76h10.47v-32.1H411.78v-10.9h-9.59v-9.88h31.58Zm281.29,74.8H779.5v-20.9H758.27V388.8H779.6V366.71H769.17v-9.88h22V345.75h10.43v-10.5H747.71V367H736.63V410H715.05Zm-443.31-20.9h-21.4v-10.9h21.31v-22.1h-21.4v-9.9h21.32V335.15H229.21v85.43h42.53Zm464.94-64.47H671.6v10.87H661.19v11.1h21.35v20.89H671.7V410H661.22v10.56h32.9V399.76H704V356.88H726.1V345.8h10.58Zm-421.8,64.67V335.22H294.23v85.37h42.34v-20.7Zm303.33-22.11v42.77H640.1V399.8h9.45v-64.5H618.12v10.78H628.6v31.69ZM120.7,420.69V335.22H99.29v85.48Zm246-51.82c-1.84,0-4.31.12-6.76,0-4.78-.28-10.22-1.07-11.68-6-1.69-5.67-6.47-6.54-10.41-10.07,0,11.47-.06,22.1.09,32.72a5,5,0,0,0,2,3.26c2.47,1.79,5.17,3.25,7.95,4.95,5.74-8.95,15.94-4.53,23.17-5.9Z"/><path class="cls-3" d="M260,268c0-1,0-2,0-3q0-124,0-247.94C260,4.25,264.2,0,276.94,0H524.39c40.08,0,51.45,42.45,51.46,53,0,87.31,0,159,0,246.33,0,10.84-4.69,15.58-15.46,15.58-87.65,0-164.77,0-252.42,0C297.2,314.87,261,298.46,260,268ZM272.25,12.14V269.56H530.67V12.14Z"/><path class="cls-4" d="M530.66,377.78H541.6V346.09H531.14v-11h64.54v10.64h11v42.9H585.27v11.06h21.26v10.07H596.12v10.75H564v-20.3H553.17V420.6h-43V410h20.49Zm44.22-11h9.59v-9.56H564.25v20.27h10.62Z"/><path class="cls-4" d="M510,335.23v10.52h10.54v32.09h-10.5v10.9H499v11.08H467.1v20.82h-33V410.1h10.65V378H455.5V346.14H445.26v-10.9Zm-11.38,22.11H477.21v20.21h10.92V366.72h10.53Z"/><path class="cls-4" d="M12.09,420.57V335.21H76.68v64.67H34.11v20.69Zm22.22-63.39v20.46H55.6V357.18Z"/><path class="cls-4" d="M433.77,345.78v11.1H402.18v9.88h9.59v10.9h10.85v32.1H412.17v10.86H380.08V410.17H358.22v-10.1h43.25V389H391V378.1H380.07V357.2H369V346.1H348.27V335.22H422.9v10.56Z"/><path class="cls-4" d="M715.05,420.59V410h21.57V367h11.09V335.25h53.86v10.5H791.14v11.08h-22v9.88H779.6V388.8H758.27v10.89H779.5v20.9Z"/><path class="cls-4" d="M271.74,399.68v20.9H229.21V335.15h42.35v21.64H250.25v9.9h21.4v22.1H250.34v10.9Z"/><path class="cls-4" d="M736.68,335.21V345.8H726.1v11.08H704v42.89h-9.9v20.77h-32.9V410H671.7v-31.9h10.84V357.18H661.19v-11.1H671.6V335.21Z"/><path class="cls-4" d="M185,388.84h-9.93v10.92H164.23v20.83h-22V389h10.49V378.12H164V366.85l-.13.13H174.8v-9.93h9.85V335.23h22v31.61H196.14V377.7H184.87V389Z"/><path class="cls-4" d="M314.88,399.89h21.69v20.7H294.23V335.22h20.65Z"/><path class="cls-4" d="M618.21,377.77H628.6V346.08H618.12V335.29h31.42v64.5H640.1v20.75H618.21Z"/><path class="cls-4" d="M120.7,420.69H99.29V335.22h21.4Z"/><path class="cls-4" d="M164,366.85H142.27V335.22h21.62q0,15.92,0,31.77Z"/><path class="cls-4" d="M184.87,389h21.75v31.64H185q0-15.92,0-31.77Z"/><path class="cls-4" d="M272.25,12.14H530.67V269.56H272.25Zm21.93,236.49H509.56V34.34H294.18Z"/><path class="cls-3" d="M574.88,366.78v10.71H564.25V357.22h20.22v9.56Z"/><path class="cls-3" d="M498.66,357.34v9.38H488.13v10.83H477.21V357.34Z"/><path class="cls-3" d="M34.31,357.18H55.6v20.46H34.31Z"/><path class="cls-3" d="M294.18,248.63V34.34H509.56V248.63Zm85.94-21.89V183.83h86.43V55.18H402.19v43h20.42v42.4H379.82V120.22H337.24V226.75Zm-43-171.6V97.67h42.43V55.15Z"/><path class="cls-4" d="M380.12,226.75H337.24V120.22h42.58v20.34h42.79V98.15H402.19v-43h64.36V183.83H380.12Z"/><path class="cls-4" d="M337.16,55.15h42.43V97.67H337.16Z"/></g></g></svg>