<svg xmlns="http://www.w3.org/2000/svg" viewBox="0 0 637 623.9"><defs><style>.cls-1{fill:#00aeef;}.cls-2{fill:#fff200;}.cls-3{fill:#ec008c;}.cls-4{fill:#fff;}</style></defs><title>PixelSprite-LogoFatColor</title><g id="Layer_2" data-name="Layer 2"><g id="Layer_1-2" data-name="Layer 1"><path class="cls-1" d="M63.25,538.8c-.08-1.81,0-3.63,0-5.45q0-225.18,0-450.36c0-23.32,7.67-31,30.82-31H543.51c72.8,0,93.46,77.1,93.46,96.2,0,158.59,0,288.83,0,447.42,0,19.69-8.53,28.3-28.09,28.3-159.2,0-299.29,0-458.48,0C130.84,623.87,65,594.06,63.25,538.8ZM85.53,74V541.57H554.91V74Z"/><path class="cls-1" d="M85.53,74H554.91V541.57H85.53Zm39.83,429.55H516.58V114.32H125.37Z"/><path class="cls-1" d="M125.37,503.56V114.32H516.58V503.56ZM281.46,463.8V385.86h157V152.18H321.55v78.05h37.09v77H280.93V270.31H203.58V463.8Zm-78-311.69v77.23h77.07V152.12Z"/><path class="cls-1" d="M281.46,463.8H203.58V270.31h77.35v36.94h77.71v-77H321.55V152.18h116.9V385.86h-157Z"/><path class="cls-1" d="M203.44,152.12h77.07v77.23H203.44Z"/><path class="cls-2" d="M29.46,513.37c-.08-1.81,0-3.63,0-5.45q0-225.18,0-450.36c0-23.32,7.67-31,30.82-31H509.72c72.8,0,93.46,77.1,93.46,96.2,0,158.59,0,288.83,0,447.42,0,19.69-8.53,28.3-28.09,28.3-159.2,0-299.29,0-458.48,0C97.06,598.44,31.25,568.63,29.46,513.37ZM51.75,48.58V516.14H521.13V48.58Z"/><path class="cls-2" d="M51.75,48.58H521.13V516.14H51.75ZM91.58,478.13H482.8V88.89H91.58Z"/><path class="cls-2" d="M91.58,478.13V88.89H482.8V478.13Zm156.09-39.75V360.43h157V126.75H287.77V204.8h37.09v77H247.14V244.88H169.79v193.5Zm-78-311.69v77.23h77.07V126.69Z"/><path class="cls-2" d="M247.68,438.37H169.79V244.88h77.35v36.94h77.71v-77H287.77V126.75h116.9V360.43h-157Z"/><path class="cls-2" d="M169.65,126.69h77.07v77.23H169.65Z"/><path class="cls-3" d="M0,486.85C0,485,0,483.22,0,481.4Q0,256.23,0,31C0,7.73,7.69,0,30.85,0H480.3c72.8,0,93.46,77.1,93.46,96.2,0,158.59,0,288.83,0,447.42,0,19.69-8.53,28.3-28.09,28.3-159.2,0-299.29,0-458.48,0C67.63,571.92,1.83,542.12,0,486.85ZM22.32,22.06V489.62H491.7V22.06Z"/><path class="cls-4" d="M22.32,22.06H491.7V489.62H22.32ZM62.16,451.61H453.37V62.37H62.16Z"/><path class="cls-3" d="M62.16,451.61V62.37H453.37V451.61Zm156.09-39.75V333.91h157V100.23H258.34v78.05h37.09v77H217.72V218.36H140.37v193.5Zm-78-311.69V177.4H217.3V100.17Z"/><path class="cls-4" d="M218.25,411.86H140.37V218.36h77.35V255.3h77.71v-77H258.34V100.23h116.9V333.91h-157Z"/><path class="cls-4" d="M140.23,100.17H217.3V177.4H140.23Z"/></g></g></svg>