<svg xmlns="http://www.w3.org/2000/svg" viewBox="0 0 910.88 184.49"><defs><style>.cls-1{fill:#00aeef;}.cls-2{fill:#fff;}.cls-3{fill:#231f20;}.cls-4{fill:#fff200;}.cls-5{fill:#ec008c;}</style></defs><title>PixelSprite-LogoColor</title><g id="Layer_2" data-name="Layer 2"><g id="Layer_1-2" data-name="Layer 1"><path class="cls-1" d="M888.73,97.8c0,4.44,0,8.91,0,13.38-.06,12.44.56,25-.07,37.33-.2,3.93-.81,7.89-4.17,10.76-3,2.54-6.58,3.13-10.17,3.16-17.66.13-35.32.06-53,.06a72.88,72.88,0,0,1-8-.05c-4.11-.46-8.27-1.09-11-4.83a15.78,15.78,0,0,1-1.07-2.05c-1.9,3.26-4.2,5.52-8.37,6.14a49.67,49.67,0,0,1-7.11.78c-7.83,0-15.67-.17-23.49.1-3,.11-5.76-.72-8.56-1.22-3-.55-5.23-2.86-6.47-5.82-1.88,3.29-4.22,5.51-8.37,6.16a49.94,49.94,0,0,1-7.12.78c-4.83,0-9.67.12-14.49,0a20.13,20.13,0,0,1-7-1.08c-2.6-1.09-5-2.85-6-5.83-1.85,3.33-4.22,5.56-8.38,6.16a47.4,47.4,0,0,1-6.61.8c-13.44,0-26.87,0-40.31,0-13.12,0-26.3.38-39.4-.27-3.35-.13-6.82-.21-9.72-2.12a9.37,9.37,0,0,1-4.09-6.17c-.28-1.44-.94-2.44-2.49-2.38-2.68.09-4.46-1.44-6.2-3.17a7.55,7.55,0,0,1-2.3-6.67h-8.89c0,1.56,0,3.33-.16,5.09-.25,2.7-.26,5.52-1.08,8.05a10.28,10.28,0,0,1-6.51,6.57,26.61,26.61,0,0,1-8,1.06q-12.74.19-25.49,0a46.13,46.13,0,0,1-8.08-1c-2.32-.45-4.35-2.59-6.22-6.07-2.14,5.5-7,6.78-11.73,7-10.15.43-20.33.41-30.48,0-4.9-.19-9.77-1.64-11.94-7a21.6,21.6,0,0,1-.72-2.86c-2.15,0-4.3,0-6.44,0-4.72-.08-9.35-1.19-13-5a59.46,59.46,0,0,1-1.31,7,10.35,10.35,0,0,1-6.33,6.71,20.45,20.45,0,0,1-7,1.18c-12.83.11-25.66.16-38.49,0-4.53-.06-8.85-1.27-11.82-5.16a14.93,14.93,0,0,1-1.14-2.58c-.79,1.34-1.16,2.1-1.66,2.77-3,4-7.42,4.9-11.91,5q-19,.27-38,0c-5.47-.09-10.72-1.3-13.51-7.61-.73,1.22-1.1,2-1.6,2.65-2.85,3.83-7.1,4.73-11.41,5-5.48.28-11,.24-16.49,0s-10.7-1.36-13.29-7.15c-1.68,1.82-2.89,3.91-4.7,4.9a17.85,17.85,0,0,1-7.54,2.19,191.83,191.83,0,0,1-20,0c-3.9-.23-7.91-1.19-10.46-4.79a16.53,16.53,0,0,1-1.07-2.06c-1.87,3.31-4.22,5.52-8.38,6.16a49.4,49.4,0,0,1-7.12.78c-5,0-10,.32-15-.08-3.79-.3-7.88-.46-11.06-4.59,0,4.17.13,7.47,0,10.76a35.39,35.39,0,0,1-1,8.06,10.25,10.25,0,0,1-6.36,6.69,20.25,20.25,0,0,1-7,1.13q-62.48.1-125,0c-5.75,0-10.84-3.64-14.87-7.41-3.41-3.19-8.87-8.1-9.83-12.84a45.19,45.19,0,0,1-.85-9.11q0-59.48,0-119a23.83,23.83,0,0,1,1.08-8,10.16,10.16,0,0,1,6.19-6.28,22.52,22.52,0,0,1,7-1.22q62.73-.11,125.46,0c6.51,0,11.59,4.75,15.65,9.32,2,2.28,4.14,4.63,5.93,7.09.39.53,3.16,5.53,2.8,5.53,5.91,0,11.86-.1,17.81,0a21.81,21.81,0,0,1,7.52,1.11c2.26.91,4.58,2.36,5.54,5,.13.37.52.64,1.09,1.31a27.09,27.09,0,0,1,1.44-2.51c2.71-3.68,6.78-4.68,10.93-4.9a147.89,147.89,0,0,1,16.49,0c7.58.45,9.87,1.26,14.26,7.27a15.18,15.18,0,0,1,1-2c2.6-3.77,6.7-4.94,10.79-5.2a135.37,135.37,0,0,1,19,0c4.85.37,9.64,1.77,12,7.77A24.68,24.68,0,0,1,305,47.79c2.6-3.78,6.72-5.09,10.8-5.18,13.66-.3,27.33-.36,41,0,4.83.13,9.62,1.77,12,7.79A23.55,23.55,0,0,1,370,47.78c2.6-3.78,6.71-4.93,10.8-5.18a138,138,0,0,1,20,0c6.42.54,10.82,5.63,14.89,10.07,1.18,1.28,3.69,5.12,5.82,3.62,1.4-1,.82-4.66,1.35-6.15a11,11,0,0,1,6.52-6.6,18.67,18.67,0,0,1,6.55-1c23.83-.07,47.65-.12,71.48,0,4.48,0,8.91,1,11.89,5a10.4,10.4,0,0,1,.86,2c2.4-5.51,7.3-6.92,12.27-7q30.74-.36,61.48,0c5,.06,10.2,1.24,12.56,7.6.74-1.17,1.13-1.89,1.62-2.53,3-3.92,7.34-5,11.84-5.13,6.82-.23,13.66-.06,20.49-.06,12.33,0,24.66.08,37-.06a33,33,0,0,1,9.07,1.12,9.31,9.31,0,0,1,6.71,6.09c2.15-5.54,7-6.82,11.75-7,10.15-.43,20.33-.44,30.48,0,4.63.2,9.59,1.22,11.76,7.06,2.16-5.59,7-6.27,11.77-7.17a16.3,16.3,0,0,1,3,0H792.2q31.81,0,63.61,0c10,0,20,0,29.94.11,3.21,0,6.5.35,9.16,2.31a58.85,58.85,0,0,1,12.41,13.18c3.76,5.2,3.92,10.12,3.26,16.4-.35,3.3-.71,6.94-3.72,9.44-1.64,1.36-3.17,2.68-5.44,2.58a2.4,2.4,0,0,0-2.71,2.18C897.24,95,895,97.1,888.73,97.8ZM249.67,86.34V54.71H228.91V86.34c7,0,14,0,20.9.15v11h-11v10H229v32.79h20.9v-22h10.81c.25-3.73-.14-7.33.22-10.87,3.86,0,7.36,0,11,.15v32.63H292.7V107.64c-7,0-14,0-20.9-.15v-10h11v-11h9.74V54.63h-20.9v21H260.88c-.25,3.73.14,7.33-.22,10.86C256.8,86.49,253.3,86.49,249.67,86.34Zm379,11.32H617.76c0,10.48,0,20.78,0,31.08a.78.78,0,0,1-.18.42,5,5,0,0,1-.58.51H595.88v10.61h43V118.71h11v21.55h33V129.57c3.73-.26,7.33.15,10.68-.21v-10.9H672v-11h21.59v-43h-10.9V54.63H618v10h10.67Zm-465,63.73V32.68C147.83,32,38.15,32.26,34,33V161.4Zm443-97.08H595.74V54.68H530.88v9.88h10.76v33h-11v32h-9.7v10.85H552a.79.79,0,0,0,.42-.18,5,5,0,0,0,.51-.57V118.45h31.87v-11h11v-10h10.79Zm-118.79,11h32.79V64.44h-11V54.72H433.94v9.75c7.38.11,14.63-.1,22,.13V75.53h9.88V97.58H476.9v10.06h10.88c0,2,0,3.79,0,5.6s-.09,3.52-.14,5.25H444.9v11.08h21v10.68h33V129.59c3.72-.33,7.33.19,10.84-.3V97.43H498.69V86.37H487.88Zm367.95,0h20.93V64.45H887.6V54.71h-54v31.9h-11v42.87H802.53a.87.87,0,0,0-.43.15c-.14.09-.24.22-.18.16v10.53c17.51.67,60.61.41,64.63-.35V118.45h-21.6v-11H866.5v-21H855.83Zm-518.93,32h20.79V86.43H336.93V75.38h20.7V54.68c-13.7-.62-38.84-.4-42.64.33v85.36h42.58v-22H336.9ZM822.64,54.66H757.87c-.39,3.38.2,6.66-.4,10h-9.61V75.58h20.75v22h-11v31.77c-3.39.31-6.67-.16-9.68.27v10.73h31.86v-22h11v-43h21v-11h10.79Zm-442.7-.08v85.66h42.68V118.49H402.56a.83.83,0,0,1-.43-.16,4.5,4.5,0,0,1-.5-.52V54.59ZM714.67,97.67H703.91c-.58,14.81-.37,38.63.32,42.65H725.7c.2-7.39-.19-14.63.24-22H736.5V54.65H704v10h10.67ZM185,54.59V140.5c7.39-.07,14.62.09,21.68-.1V54.59ZM433.74,113.5c.26,0,.5,0,.57-.06a3.47,3.47,0,0,0,.47-.8c1.8-4,6.15-5.44,10.19-5.94a48.48,48.48,0,0,1,6.44-.26c1.07,0,6.09-.54,6.7.05-3.43-3.32-3.92-7.21-4.28-11.07-.24-2.59,0-5.22,0-7.75-4-.64-7.68,0-11.42-1-4.31-1.07-8.27-4.07-8.54-8.75-.08-1.4-.88-2.42-1.94-2.37-3.42.17-5.52-1.93-7.92-4.44v36.41C428.94,106.8,431.28,110.32,433.74,113.5Z"/><path class="cls-2" d="M628.67,97.67v-33H618v-10h64.65v9.78h10.9v43H672v11h21.62v10.9c-3.35.36-7-.05-10.68.21v10.69h-33V118.71h-11v21.58h-43V129.68H617a5,5,0,0,0,.58-.51.78.78,0,0,0,.18-.42c0-10.3,0-20.6,0-31.08ZM671.58,86.5v-11c-7.39.14-14.62-.18-21.67.19V97.24h11V86.5Z"/><path class="cls-2" d="M163.65,161.4H34V33c4.15-.72,113.83-1,129.65-.3ZM152.73,43.67H45c-.74,18.74-.44,102.46.34,106.64h107.4Z"/><path class="cls-2" d="M606.67,64.32v33H595.88v10h-11v11H553v21.28a5,5,0,0,1-.51.57.79.79,0,0,1-.42.18H520.95V129.63h9.7v-32h11v-33H530.88V54.68h64.86v9.64ZM563.93,75.57V97.49c2,0,3.76,0,5.57,0s3.53-.09,5.44-.15V86.49c1.8,0,3.44,0,5.08,0s3.19-.11,4.58-.16V75.57Z"/><path class="cls-2" d="M487.88,75.32V86.37h10.81V97.43h11.09V129.3c-3.51.49-7.12,0-10.84.3v10.65h-33V129.56h-21V118.49h42.74c0-1.73.12-3.49.14-5.25s0-3.62,0-5.6H476.9V97.58H465.84V75.53H456V64.6c-7.4-.23-14.64,0-22-.13V54.72h75.76v9.72h11V75.32Z"/><path class="cls-2" d="M855.83,75.32v11H866.5v21H844.94v11h21.6V140c-4,.76-47.12,1-64.63.35V129.81c-.07.06,0-.07.18-.16a.87.87,0,0,1,.43-.15H822.6V86.62h11V54.71h54v9.73H876.76V75.32Z"/><path class="cls-2" d="M336.9,107.31v11.06h20.67v22H315V55c3.8-.73,28.94-.95,42.64-.33v20.7h-20.7V86.43h20.76v20.88Z"/><path class="cls-2" d="M822.64,54.66v9.69H811.85v11h-21v43h-11v22H747.92V129.66c3-.44,6.29,0,9.68-.27V97.61h11v-22H747.86V64.69h9.61c.59-3.37,0-6.65.4-10Z"/><path class="cls-2" d="M379.94,54.59h21.68V117.8a4.5,4.5,0,0,0,.5.52.83.83,0,0,0,.43.16h20.06v21.76H379.94Z"/><path class="cls-2" d="M271.8,107.49H260.95c-.36,3.53,0,7.14-.22,10.87H249.92v22H229V107.56h9.74v-10h11v-11h10.86c.36-3.53,0-7.14.22-10.86h10.81v-21h20.9v31.8h-9.74v11h-11Z"/><path class="cls-2" d="M714.67,97.67v-33H704v-10h32.5v63.66H725.94c-.42,7.38,0,14.62-.24,22H704.23c-.7-4-.9-27.85-.32-42.65Z"/><path class="cls-2" d="M185,54.59h21.68V140.4c-7.06.19-14.29,0-21.68.1Z"/><path class="cls-2" d="M271.94,107.64H292.7v32.63H271.94Z"/><path class="cls-2" d="M249.67,86.34H228.91V54.71h20.76Z"/><path class="cls-3" d="M671.58,86.5H660.92V97.24h-11V75.66c7-.37,14.27,0,21.67-.19Z"/><path class="cls-3" d="M152.73,43.67V150.31H45.34c-.78-4.18-1.08-87.9-.34-106.64Zm-22,11H98.93V75.55h10.76v21.7h-22V86.49H66.58a.79.79,0,0,0-.42.18c-.13.09-.22.24-.14.14v53.55h21.9v-22h42.8ZM65.91,75.32H87.86c-.16-7.06.2-14-.2-20.66H65.91Z"/><path class="cls-3" d="M563.93,75.57h20.66V86.33c-1.39,0-3,.13-4.58.16s-3.28,0-5.08,0V97.34c-1.91.05-3.67.12-5.44.15s-3.61,0-5.57,0Z"/><path class="cls-2" d="M130.72,54.67v63.7H87.92v22H66V86.82c-.08.1,0,0,.14-.14a.79.79,0,0,1,.42-.18h21.1V97.26h22V75.55H98.93V54.67Z"/><path class="cls-2" d="M65.91,75.32V54.67H87.66c.4,6.7,0,13.6.2,20.66Z"/><path class="cls-4" d="M878.42,88.24c0,4.44,0,8.91,0,13.38-.06,12.44.56,25-.07,37.33-.2,3.93-.81,7.89-4.17,10.76-3,2.54-6.58,3.13-10.17,3.16-17.66.13-35.32.06-53,.06a72.88,72.88,0,0,1-8-.05c-4.11-.46-8.27-1.09-11-4.83A15.78,15.78,0,0,1,791,146c-1.9,3.26-4.2,5.52-8.37,6.14a49.67,49.67,0,0,1-7.11.78c-7.83,0-15.67-.17-23.49.1-3,.11-5.76-.72-8.56-1.22-3-.55-5.23-2.86-6.47-5.82-1.88,3.29-4.22,5.51-8.37,6.16a49.94,49.94,0,0,1-7.12.78c-4.83,0-9.67.12-14.49,0a20.13,20.13,0,0,1-7-1.08c-2.6-1.09-5-2.85-6-5.83-1.85,3.33-4.22,5.56-8.38,6.16a47.4,47.4,0,0,1-6.61.8c-13.44,0-26.87,0-40.31,0-13.12,0-26.3.38-39.4-.27-3.35-.13-6.82-.21-9.72-2.12a9.37,9.37,0,0,1-4.09-6.17c-.28-1.44-.94-2.44-2.49-2.38-2.68.09-4.46-1.44-6.2-3.17a7.55,7.55,0,0,1-2.3-6.67H565.6c0,1.56,0,3.33-.16,5.09-.25,2.7-.26,5.52-1.08,8.05a10.28,10.28,0,0,1-6.51,6.57,26.61,26.61,0,0,1-8,1.06q-12.74.19-25.49,0a46.13,46.13,0,0,1-8.08-1c-2.32-.45-4.35-2.59-6.22-6.07-2.14,5.5-7,6.78-11.73,7-10.15.43-20.33.41-30.48,0-4.9-.19-9.77-1.64-11.94-7a21.6,21.6,0,0,1-.72-2.86c-2.15,0-4.3,0-6.44,0-4.72-.08-9.35-1.19-13-5a59.46,59.46,0,0,1-1.31,7,10.35,10.35,0,0,1-6.33,6.71,20.45,20.45,0,0,1-7,1.18c-12.83.11-25.66.16-38.49,0-4.53-.06-8.85-1.27-11.82-5.16a14.93,14.93,0,0,1-1.14-2.58c-.79,1.34-1.16,2.1-1.66,2.77-3,4-7.42,4.9-11.91,5q-19,.27-38,0c-5.47-.09-10.72-1.3-13.51-7.61-.73,1.22-1.1,2-1.6,2.65-2.85,3.83-7.1,4.73-11.41,5-5.48.28-11,.24-16.49,0s-10.7-1.36-13.29-7.15c-1.68,1.82-2.89,3.91-4.7,4.9a17.85,17.85,0,0,1-7.54,2.19,191.83,191.83,0,0,1-20,0c-3.9-.23-7.91-1.19-10.46-4.79A16.53,16.53,0,0,1,218,146c-1.87,3.31-4.22,5.52-8.38,6.16a49.4,49.4,0,0,1-7.12.78c-5,0-10,.32-15-.08-3.79-.3-7.88-.46-11.06-4.59,0,4.17.13,7.47,0,10.76a35.39,35.39,0,0,1-1,8.06,10.25,10.25,0,0,1-6.36,6.69,20.25,20.25,0,0,1-7,1.13q-62.48.1-125,0c-5.75,0-10.84-3.64-14.87-7.41-3.41-3.19-8.87-8.1-9.83-12.84a45.19,45.19,0,0,1-.85-9.11q0-59.48,0-119a23.83,23.83,0,0,1,1.08-8,10.16,10.16,0,0,1,6.19-6.28,22.52,22.52,0,0,1,7-1.22q62.73-.11,125.46,0c6.51,0,11.59,4.75,15.65,9.32,2,2.28,4.14,4.63,5.93,7.09.39.53,3.16,5.53,2.8,5.53,5.91,0,11.86-.1,17.81,0A21.81,21.81,0,0,1,201,34.09c2.26.91,4.58,2.36,5.54,5,.13.37.52.64,1.09,1.31A27.09,27.09,0,0,1,209,37.91c2.71-3.68,6.78-4.68,10.93-4.9a147.89,147.89,0,0,1,16.49,0c7.58.45,9.87,1.26,14.26,7.27a15.18,15.18,0,0,1,1-2c2.6-3.77,6.7-4.94,10.79-5.2a135.37,135.37,0,0,1,19,0c4.85.37,9.64,1.77,12,7.77a24.68,24.68,0,0,1,1.27-2.59c2.6-3.78,6.72-5.09,10.8-5.18,13.66-.3,27.33-.36,41,0,4.83.13,9.62,1.77,12,7.79a23.55,23.55,0,0,1,1.26-2.64c2.6-3.78,6.71-4.93,10.8-5.18a138,138,0,0,1,20,0c6.42.54,10.82,5.63,14.89,10.07,1.18,1.28,3.69,5.12,5.82,3.62,1.4-1,.82-4.66,1.35-6.15a11,11,0,0,1,6.52-6.6,18.67,18.67,0,0,1,6.55-1c23.83-.07,47.65-.12,71.48,0,4.48,0,8.91,1,11.89,5a10.4,10.4,0,0,1,.86,2c2.4-5.51,7.3-6.92,12.27-7q30.74-.36,61.48,0c5,.06,10.2,1.24,12.56,7.6.74-1.17,1.13-1.89,1.62-2.53,3-3.92,7.34-5,11.84-5.13,6.82-.23,13.66-.06,20.49-.06,12.33,0,24.66.08,37-.06A33,33,0,0,1,676.17,34a9.31,9.31,0,0,1,6.71,6.09c2.15-5.54,7-6.82,11.75-7,10.15-.43,20.33-.44,30.48,0,4.63.2,9.59,1.22,11.76,7.06,2.16-5.59,7-6.27,11.77-7.17a16.3,16.3,0,0,1,3,0h30.25q31.81,0,63.61,0c10,0,20,0,29.94.11,3.21,0,6.5.35,9.16,2.31A58.85,58.85,0,0,1,897,48.52c3.76,5.2,3.92,10.12,3.26,16.4-.35,3.3-.71,6.94-3.72,9.44-1.64,1.36-3.17,2.68-5.44,2.58a2.4,2.4,0,0,0-2.71,2.18C886.93,85.45,884.66,87.53,878.42,88.24ZM239.36,76.78V45.15H218.6V76.78c7,0,14,0,20.9.15v11h-11V98h-9.74v32.79h20.9v-22h10.81c.25-3.73-.14-7.33.22-10.87,3.86,0,7.36,0,11,.15v32.63h20.76V98.08c-7,0-14,0-20.9-.15v-10h11v-11h9.74V45.07h-20.9v21H250.57c-.25,3.73.14,7.33-.22,10.86C246.49,76.93,243,76.93,239.36,76.78Zm379,11.32H607.45c0,10.48,0,20.78,0,31.08a.78.78,0,0,1-.18.42,5,5,0,0,1-.58.51H585.56v10.61h43V109.15h11v21.55h33V120c3.73-.26,7.33.15,10.68-.21V108.9H661.64v-11h21.59v-43h-10.9V45.07H607.68v10h10.67Zm-465,63.73V23.12c-15.82-.7-125.5-.41-129.65.3V151.84Zm443-97.08H585.43V45.12H520.57V55h10.76V88h-11v32h-9.7v10.85h31.08a.79.79,0,0,0,.42-.18,5,5,0,0,0,.51-.57V108.88h31.87v-11h11v-10h10.79Zm-118.79,11h32.79V54.88h-11V45.16H423.62v9.75c7.38.11,14.63-.1,22,.13V66h9.88V88h11.05V98.07h10.88c0,2,0,3.79,0,5.6s-.09,3.52-.14,5.25H434.58V120h21v10.68h33V120c3.72-.33,7.33.19,10.84-.3V87.87H488.37V76.81H477.57Zm367.95,0h20.93V54.88h10.85V45.15h-54v31.9h-11v42.87H792.21a.87.87,0,0,0-.43.15c-.14.09-.24.22-.18.16v10.53c17.51.67,60.61.41,64.63-.35V108.88h-21.6v-11h21.56v-21H845.52Zm-518.93,32h20.79V76.87H326.62V65.81h20.7V45.12c-13.7-.62-38.84-.4-42.64.33v85.36h42.58v-22H326.59ZM812.33,45.1H747.56c-.39,3.38.2,6.66-.4,10h-9.61V66h20.75v22h-11v31.77c-3.39.31-6.67-.16-9.68.27v10.73h31.86v-22h11v-43h21v-11h10.79ZM369.63,45v85.66h42.68V108.93H392.25a.83.83,0,0,1-.43-.16,4.5,4.5,0,0,1-.5-.52V45ZM704.36,88.1H693.59c-.58,14.81-.37,38.63.32,42.65h21.47c.2-7.39-.19-14.63.24-22h10.56V45.09h-32.5v10h10.67ZM174.66,45v85.92c7.39-.07,14.62.09,21.68-.1V45Zm248.77,58.91c.26,0,.5,0,.57-.06a3.47,3.47,0,0,0,.47-.8c1.8-4,6.15-5.44,10.19-5.94a48.48,48.48,0,0,1,6.44-.26c1.07,0,6.09-.54,6.7.05-3.43-3.32-3.92-7.21-4.28-11.07-.24-2.59,0-5.22,0-7.75-4-.64-7.68,0-11.42-1-4.31-1.07-8.27-4.07-8.54-8.75-.08-1.4-.88-2.42-1.94-2.37-3.42.17-5.52-1.93-7.92-4.44V98C418.62,97.24,421,100.76,423.43,103.94Z"/><path class="cls-2" d="M618.36,88.1v-33H607.68v-10h64.65v9.78h10.9v43H661.64v11h21.62v10.9c-3.35.36-7-.05-10.68.21v10.69h-33V109.15h-11v21.58h-43V120.11h21.12a5,5,0,0,0,.58-.51.78.78,0,0,0,.18-.42c0-10.3,0-20.6,0-31.08Zm42.91-11.17v-11c-7.39.14-14.62-.18-21.67.19V87.68h11V76.93Z"/><path class="cls-2" d="M153.34,151.84H23.69V23.42c4.15-.72,113.83-1,129.65-.3ZM142.42,34.11H34.68c-.74,18.74-.44,102.46.34,106.64h107.4Z"/><path class="cls-2" d="M596.36,54.76v33H585.56v10h-11v11H542.64v21.28a5,5,0,0,1-.51.57.79.79,0,0,1-.42.18H510.63V120.07h9.7V88h11V55H520.57V45.12h64.86v9.64ZM553.61,66V87.93c2,0,3.76,0,5.57,0s3.53-.09,5.44-.15V76.93c1.8,0,3.44,0,5.08,0s3.19-.11,4.58-.16V66Z"/><path class="cls-2" d="M477.57,65.76V76.81h10.81V87.87h11.09v31.87c-3.51.49-7.12,0-10.84.3v10.65h-33V120h-21V108.93h42.74c0-1.73.12-3.49.14-5.25s0-3.62,0-5.6H466.58V88H455.53V66h-9.88V55c-7.4-.23-14.64,0-22-.13V45.16h75.76v9.72h11V65.76Z"/><path class="cls-2" d="M845.52,65.76v11h10.67v21H834.63v11h21.6v21.54c-4,.76-47.12,1-64.63.35V120.24c-.07.06,0-.07.18-.16a.87.87,0,0,1,.43-.15h20.07V77.05h11V45.15h54v9.73H866.44V65.76Z"/><path class="cls-2" d="M326.59,97.75v11.06h20.67v22H304.68V45.44c3.8-.73,28.94-.95,42.64-.33v20.7h-20.7V76.87h20.76V97.75Z"/><path class="cls-2" d="M812.33,45.1v9.69H801.54v11h-21v43h-11v22H737.61V120.1c3-.44,6.29,0,9.68-.27V88.05h11V66H737.55V55.13h9.61c.59-3.37,0-6.65.4-10Z"/><path class="cls-2" d="M369.63,45h21.68v63.21a4.5,4.5,0,0,0,.5.52.83.83,0,0,0,.43.16h20.06v21.76H369.63Z"/><path class="cls-2" d="M261.49,97.93H250.64c-.36,3.53,0,7.14-.22,10.87H239.61v22h-20.9V98h9.74v-10h11v-11h10.86c.36-3.53,0-7.14.22-10.86h10.81v-21h20.9v31.8h-9.74v11h-11Z"/><path class="cls-2" d="M704.36,88.1v-33H693.69v-10h32.5v63.66H715.63c-.42,7.38,0,14.62-.24,22H693.92c-.7-4-.9-27.85-.32-42.65Z"/><path class="cls-2" d="M174.66,45h21.68v85.81c-7.06.19-14.29,0-21.68.1Z"/><path class="cls-2" d="M261.63,98.08h20.76v32.63H261.63Z"/><path class="cls-2" d="M239.36,76.78H218.6V45.15h20.76Z"/><path class="cls-3" d="M661.27,76.93H650.61V87.68h-11V66.09c7-.37,14.27,0,21.67-.19Z"/><path class="cls-3" d="M142.42,34.11V140.75H35c-.78-4.18-1.08-87.9-.34-106.64Zm-22,11H88.62V66H99.38v21.7h-22V76.93H56.27a.79.79,0,0,0-.42.18c-.13.09-.22.24-.14.14v53.55H77.6v-22h42.8ZM55.6,65.76H77.55c-.16-7.06.2-14-.2-20.66H55.6Z"/><path class="cls-3" d="M553.61,66h20.66V76.77c-1.39,0-3,.13-4.58.16s-3.28,0-5.08,0V87.78c-1.91.05-3.67.12-5.44.15s-3.61,0-5.57,0Z"/><path class="cls-2" d="M120.41,45.11v63.7H77.6v22H55.71V77.26c-.08.1,0,0,.14-.14a.79.79,0,0,1,.42-.18h21.1V87.69h22V66H88.62V45.11Z"/><path class="cls-2" d="M55.6,65.76V45.1H77.34c.4,6.7,0,13.6.2,20.66Z"/><path class="cls-5" d="M866.89,77.3c0,4.44,0,8.91,0,13.38-.06,12.44.56,25-.07,37.33-.2,3.93-.81,7.89-4.17,10.76-3,2.54-6.58,3.13-10.17,3.16-17.66.13-35.32.06-53,.06a72.88,72.88,0,0,1-8-.05c-4.11-.46-8.27-1.09-11-4.83a15.78,15.78,0,0,1-1.07-2.05c-1.9,3.26-4.2,5.52-8.37,6.14A49.67,49.67,0,0,1,764,142c-7.83,0-15.67-.17-23.49.1-3,.11-5.76-.72-8.56-1.22-3-.55-5.23-2.86-6.47-5.82-1.88,3.29-4.22,5.51-8.37,6.16A49.94,49.94,0,0,1,710,142c-4.83,0-9.67.12-14.49,0a20.13,20.13,0,0,1-7-1.08c-2.6-1.09-5-2.85-6-5.83-1.85,3.33-4.22,5.56-8.38,6.16a47.4,47.4,0,0,1-6.61.8c-13.44,0-26.87,0-40.31,0-13.12,0-26.3.38-39.4-.27-3.35-.13-6.82-.21-9.72-2.12a9.37,9.37,0,0,1-4.09-6.17c-.28-1.44-.94-2.44-2.49-2.38-2.68.09-4.46-1.44-6.2-3.17a7.55,7.55,0,0,1-2.3-6.67h-8.89c0,1.56,0,3.33-.16,5.09-.25,2.7-.26,5.52-1.08,8.05a10.28,10.28,0,0,1-6.51,6.57,26.61,26.61,0,0,1-8,1.06q-12.74.19-25.49,0a46.13,46.13,0,0,1-8.08-1c-2.32-.45-4.35-2.59-6.22-6.07-2.14,5.5-7,6.78-11.73,7-10.15.43-20.33.41-30.48,0-4.9-.19-9.77-1.64-11.94-7a21.6,21.6,0,0,1-.72-2.86c-2.15,0-4.3,0-6.44,0-4.72-.08-9.35-1.19-13-5a59.46,59.46,0,0,1-1.31,7,10.35,10.35,0,0,1-6.33,6.71,20.45,20.45,0,0,1-7,1.18c-12.83.11-25.66.16-38.49,0-4.53-.06-8.85-1.27-11.82-5.16a14.93,14.93,0,0,1-1.14-2.58c-.79,1.34-1.16,2.1-1.66,2.77-3,4-7.42,4.9-11.91,5q-19,.27-38,0c-5.47-.09-10.72-1.3-13.51-7.61-.73,1.22-1.1,2-1.6,2.65-2.85,3.83-7.1,4.73-11.41,5-5.48.28-11,.24-16.49,0s-10.7-1.36-13.29-7.15c-1.68,1.82-2.89,3.91-4.7,4.9a17.85,17.85,0,0,1-7.54,2.19,191.83,191.83,0,0,1-20,0c-3.9-.23-7.91-1.19-10.46-4.79a16.53,16.53,0,0,1-1.07-2.06c-1.87,3.31-4.22,5.52-8.38,6.16A49.4,49.4,0,0,1,191,142c-5,0-10,.32-15-.08-3.79-.3-7.88-.46-11.06-4.59,0,4.17.13,7.47,0,10.76a35.39,35.39,0,0,1-1,8.06,10.25,10.25,0,0,1-6.36,6.69,20.25,20.25,0,0,1-7,1.13q-62.48.1-125,0c-5.75,0-10.84-3.64-14.87-7.41-3.41-3.19-8.87-8.1-9.83-12.84A45.19,45.19,0,0,1,0,134.56q0-59.48,0-119a23.83,23.83,0,0,1,1.08-8A10.16,10.16,0,0,1,7.32,1.28a22.52,22.52,0,0,1,7-1.22Q77-.05,139.75.05c6.51,0,11.59,4.75,15.65,9.32,2,2.28,4.14,4.63,5.93,7.09.39.53,3.16,5.53,2.8,5.53,5.91,0,11.86-.1,17.81,0a21.81,21.81,0,0,1,7.52,1.11c2.26.91,4.58,2.36,5.54,5,.13.37.52.64,1.09,1.31A27.09,27.09,0,0,1,197.53,27c2.71-3.68,6.78-4.68,10.93-4.9a147.89,147.89,0,0,1,16.49,0c7.58.45,9.87,1.26,14.26,7.27a15.18,15.18,0,0,1,1-2c2.6-3.77,6.7-4.94,10.79-5.2a135.37,135.37,0,0,1,19,0c4.85.37,9.64,1.77,12,7.77a24.68,24.68,0,0,1,1.27-2.59c2.6-3.78,6.72-5.09,10.8-5.18,13.66-.3,27.33-.36,41,0,4.83.13,9.62,1.77,12,7.79a23.55,23.55,0,0,1,1.26-2.64c2.6-3.78,6.71-4.93,10.8-5.18a138,138,0,0,1,20,0c6.42.54,10.82,5.63,14.89,10.07,1.18,1.28,3.69,5.12,5.82,3.62,1.4-1,.82-4.66,1.35-6.15a11,11,0,0,1,6.52-6.6,18.67,18.67,0,0,1,6.55-1c23.83-.07,47.65-.12,71.48,0,4.48,0,8.91,1,11.89,5a10.4,10.4,0,0,1,.86,2c2.4-5.51,7.3-6.92,12.27-7q30.74-.36,61.48,0c5,.06,10.2,1.24,12.56,7.6.74-1.17,1.13-1.89,1.62-2.53,3-3.92,7.34-5,11.84-5.13,6.82-.23,13.66-.06,20.49-.06,12.33,0,24.66.08,37-.06a33,33,0,0,1,9.07,1.12,9.31,9.31,0,0,1,6.71,6.09c2.15-5.54,7-6.82,11.75-7,10.15-.43,20.33-.44,30.48,0,4.63.2,9.59,1.22,11.76,7.06,2.16-5.59,7-6.27,11.77-7.17a16.3,16.3,0,0,1,3,0h30.25q31.81,0,63.61,0c10,0,20,0,29.94.11,3.21,0,6.5.35,9.16,2.31a58.85,58.85,0,0,1,12.41,13.18c3.76,5.2,3.92,10.12,3.26,16.4-.35,3.3-.71,6.94-3.72,9.44-1.64,1.36-3.17,2.68-5.44,2.58a2.4,2.4,0,0,0-2.71,2.18C875.41,74.51,873.14,76.6,866.89,77.3ZM227.84,65.84V34.21H207.08V65.84c7,0,14,0,20.9.15V77h-11v10h-9.74v32.79h20.9v-22H238.9c.25-3.73-.14-7.33.22-10.87,3.86,0,7.36,0,11,.15v32.63h20.76V87.14c-7,0-14,0-20.9-.15V77h11v-11h9.74V34.13h-20.9v21H239c-.25,3.73.14,7.33-.22,10.86C235,66,231.47,66,227.84,65.84Zm379,11.32H595.93c0,10.48,0,20.78,0,31.08a.78.78,0,0,1-.18.42,5,5,0,0,1-.58.51H574v10.61h43V98.21h11v21.55h33V109.07c3.73-.26,7.33.15,10.68-.21V98H650.12v-11h21.59v-43h-10.9V34.13H596.16v10h10.67Zm-465,63.73V12.18c-15.82-.7-125.5-.41-129.65.3V140.9Zm443-97.08H573.91V34.18H509v9.88h10.76v33h-11v32h-9.7V120h31.08a.79.79,0,0,0,.42-.18,5,5,0,0,0,.51-.57V97.95H563v-11h11v-10h10.79ZM466,54.82h32.79V43.94h-11V34.22H412.1V44c7.38.11,14.63-.1,22,.13V55H444V77.08h11.05V87.14h10.88c0,2,0,3.79,0,5.6s-.09,3.52-.14,5.25H423.06v11.08h21v10.68h33V109.09c3.72-.33,7.33.19,10.84-.3V76.93H476.85V65.87H466Zm367.95,0h20.93V43.95h10.85V34.21h-54v31.9h-11V109H780.69a.87.87,0,0,0-.43.15c-.14.09-.24.22-.18.16v10.53c17.51.67,60.61.41,64.63-.35V97.95h-21.6v-11h21.56v-21H834Zm-518.93,32h20.79V65.93H315.1V54.88h20.7V34.18c-13.7-.62-38.84-.4-42.64.33v85.36h42.58v-22H315.07ZM800.81,34.16H736c-.39,3.38.2,6.66-.4,10H726V55.08h20.75v22h-11v31.77c-3.39.31-6.67-.16-9.68.27v10.73H758v-22h11v-43h21v-11h10.79Zm-442.7-.08v85.66h42.68V98H380.73a.83.83,0,0,1-.43-.16,4.5,4.5,0,0,1-.5-.52V34.09ZM692.84,77.17H682.07c-.58,14.81-.37,38.63.32,42.65h21.47c.2-7.39-.19-14.63.24-22h10.56V34.15h-32.5v10h10.67ZM163.14,34.09V120c7.39-.07,14.62.09,21.68-.1V34.09ZM411.91,93c.26,0,.5,0,.57-.06a3.47,3.47,0,0,0,.47-.8c1.8-4,6.15-5.44,10.19-5.94a48.48,48.48,0,0,1,6.44-.26c1.07,0,6.09-.54,6.7.05-3.43-3.32-3.92-7.21-4.28-11.07-.24-2.59,0-5.22,0-7.75-4-.64-7.68,0-11.42-1-4.31-1.07-8.27-4.07-8.54-8.75C411.9,56,411.1,55,410,55.08c-3.42.17-5.52-1.93-7.92-4.44V87C407.1,86.3,409.45,89.82,411.91,93Z"/><path class="cls-2" d="M606.84,77.17v-33H596.16v-10h64.65v9.78h10.9v43H650.12V98h21.62v10.9c-3.35.36-7-.05-10.68.21v10.69H628V98.21H617v21.58H574V109.18h21.12a5,5,0,0,0,.58-.51.78.78,0,0,0,.18-.42c0-10.3,0-20.6,0-31.08ZM649.75,66V55c-7.39.14-14.62-.18-21.67.19V76.74h11V66Z"/><path class="cls-2" d="M141.82,140.9H12.17V12.48c4.15-.72,113.83-1,129.65-.3ZM130.9,23.17H23.16c-.74,18.74-.44,102.46.34,106.64H130.9Z"/><path class="cls-2" d="M584.84,43.82v33H574v10H563v11H531.12v21.28a5,5,0,0,1-.51.57.79.79,0,0,1-.42.18H499.11V109.13h9.7v-32h11v-33H509V34.18h64.86v9.64ZM542.09,55.07V77c2,0,3.76,0,5.57,0s3.53-.09,5.44-.15V66c1.8,0,3.44,0,5.08,0s3.19-.11,4.58-.16V55.07Z"/><path class="cls-2" d="M466,54.82V65.87h10.81V76.93h11.09V108.8c-3.51.49-7.12,0-10.84.3v10.65h-33V109.06h-21V98H465.8c0-1.73.12-3.49.14-5.25s0-3.62,0-5.6H455.06V77.08H444V55h-9.88V44.1c-7.4-.23-14.64,0-22-.13V34.22h75.76v9.72h11V54.82Z"/><path class="cls-2" d="M834,54.82v11h10.67v21H823.11v11h21.6v21.54c-4,.76-47.12,1-64.63.35V109.31c-.07.06,0-.07.18-.16a.87.87,0,0,1,.43-.15h20.07V66.12h11V34.21h54v9.73H854.92V54.82Z"/><path class="cls-2" d="M315.07,86.81V97.87h20.67v22H293.16V34.5c3.8-.73,28.94-.95,42.64-.33v20.7H315.1V65.93h20.76V86.81Z"/><path class="cls-2" d="M800.81,34.16v9.69H790v11H769v43H758v22H726.09V109.16c3-.44,6.29,0,9.68-.27V77.11h11v-22H726V44.19h9.61c.59-3.37,0-6.65.4-10Z"/><path class="cls-2" d="M358.11,34.09h21.68V97.3a4.5,4.5,0,0,0,.5.52.83.83,0,0,0,.43.16h20.06v21.76H358.11Z"/><path class="cls-2" d="M250,87H239.11c-.36,3.53,0,7.14-.22,10.87H228.09v22h-20.9V87.06h9.74V77h11V66h10.86c.36-3.53,0-7.14.22-10.86h10.81v-21h20.9v31.8H261V77H250Z"/><path class="cls-2" d="M692.84,77.17v-33H682.17v-10h32.5V97.81H704.11c-.42,7.38,0,14.62-.24,22H682.4c-.7-4-.9-27.85-.32-42.65Z"/><path class="cls-2" d="M163.14,34.09h21.68V119.9c-7.06.19-14.29,0-21.68.1Z"/><path class="cls-2" d="M250.11,87.14h20.76v32.63H250.11Z"/><path class="cls-2" d="M227.84,65.84H207.08V34.21h20.76Z"/><path class="cls-5" d="M649.75,66H639.09V76.74h-11V55.16c7-.37,14.27,0,21.67-.19Z"/><path class="cls-5" d="M130.9,23.17V129.81H23.5c-.78-4.18-1.08-87.9-.34-106.64Zm-22,11H77.1V55.05H87.86v21.7h-22V66H44.75a.79.79,0,0,0-.42.18c-.13.09-.22.24-.14.14v53.55h21.9v-22h42.8ZM44.08,54.82H66c-.16-7.06.2-14-.2-20.66H44.08Z"/><path class="cls-5" d="M542.09,55.07h20.66V65.83c-1.39,0-3,.13-4.58.16s-3.28,0-5.08,0V76.84c-1.91.05-3.67.12-5.44.15s-3.61,0-5.57,0Z"/><path class="cls-2" d="M108.89,34.17v63.7H66.08v22H44.19V66.32c-.08.1,0,0,.14-.14a.79.79,0,0,1,.42-.18h21.1V76.76h22V55.05H77.1V34.17Z"/><path class="cls-2" d="M44.08,54.82V34.17H65.82c.4,6.7,0,13.6.2,20.66Z"/></g></g></svg>