<svg xmlns="http://www.w3.org/2000/svg" viewBox="0 0 219 236"><defs><style>.cls-1{fill:#eee;}</style></defs><title>print-icon</title><g id="Layer_2" data-name="Layer 2"><g id="Layer_1-2" data-name="Layer 1"><path class="cls-1" d="M49,23H170V42h23V14.75A14.75,14.75,0,0,0,178.25,0H40.75A14.75,14.75,0,0,0,26,14.75V42H49Z"/><rect class="cls-1" x="63" y="150" width="86" height="18" rx="9" ry="9"/><rect class="cls-1" x="63" y="176" width="65" height="18" rx="9" ry="9"/><path class="cls-1" d="M204.25,56H14.75A14.75,14.75,0,0,0,0,70.75v95.5A14.75,14.75,0,0,0,14.75,181H26v40.25A14.75,14.75,0,0,0,40.75,236h137.5A14.75,14.75,0,0,0,193,221.25V181h11.25A14.75,14.75,0,0,0,219,166.25V70.75A14.75,14.75,0,0,0,204.25,56ZM170,213H49V122H170ZM192.5,99.25A14.75,14.75,0,1,1,207.25,84.5,14.75,14.75,0,0,1,192.5,99.25Z"/></g></g></svg>